<svg width="234" height="60" viewBox="0 0 234 60" fill="none" xmlns="http://www.w3.org/2000/svg">
<path fill-rule="evenodd" clip-rule="evenodd" d="M31.2873 7.95057C30.4235 7.86091 28.3874 7.83687 27.5825 7.894H27.579C25.2639 8.0706 23.1058 8.58736 20.9899 9.42133C20.1704 9.74346 18.5779 10.5349 17.8017 11.0052C12.0239 14.5081 8.20889 20.3568 7.40216 27.0139C6.81957 31.827 7.84505 36.6853 10.317 40.8165C12.1717 43.9098 14.7036 46.4629 17.8019 48.34C18.5783 48.8104 20.1715 49.6019 20.9909 49.9239C21.9855 50.3142 23.129 50.6696 24.0683 50.8855C26.9868 51.5556 29.9007 51.667 32.8003 51.1684C38.0514 50.2685 42.7922 47.4321 46.1337 43.2489C46.4504 42.8549 46.8177 42.3534 47.0995 41.9478C47.1467 41.88 47.192 41.8193 47.2348 41.762C47.2894 41.689 47.3398 41.6215 47.3845 41.5518L53.9576 45.6247C50.6259 50.6875 45.7883 54.5908 40.1191 56.7686C34.2384 59.0276 27.7822 59.3489 21.7252 57.6171C15.6681 55.8853 10.339 52.2345 6.54239 47.2086C2.74579 42.1827 0.687774 36.0272 0.679045 29.7292C0.670317 23.4312 2.71135 17.2861 6.49401 12.2497C10.2767 7.21335 15.5956 3.58979 21.6478 1.84124C27.7001 0.0926977 34.1571 0.333881 40.044 2.57662C45.7192 4.73871 50.5676 8.61035 53.9133 13.6639L47.3774 17.7934C47.3492 17.7497 47.3188 17.7004 47.2866 17.6482C47.2263 17.5505 47.1595 17.4422 47.0888 17.3408C46.8003 16.9269 46.4231 16.4493 46.0931 16.0398C44.657 14.2499 42.9637 12.6729 41.0254 11.4012C38.0797 9.47214 34.8096 8.31394 31.2873 7.95057ZM54.5711 45.9637C54.6823 45.7945 54.7921 45.6277 54.9 45.455L29.707 29.6726L38.2079 24.3552L54.8563 13.8902C54.7379 13.702 54.6175 13.5199 54.4952 13.3349L54.4883 13.3245C51.064 8.14627 46.0987 4.16893 40.2858 1.95438C34.2612 -0.340827 27.6531 -0.627017 21.4593 1.16243C15.2655 2.95188 9.82216 6.69956 5.95101 11.8537C2.07987 17.0079 -0.00890386 23.2838 2.85297e-05 29.7292C0.00896092 36.1745 2.11511 42.4612 6.00053 47.6046C9.88594 52.748 15.3397 56.467 21.5384 58.2393C27.7372 60.0116 34.3444 59.7593 40.3627 57.4474C46.1694 55.2167 51.1237 51.2084 54.5336 46.0207L54.5711 45.9637ZM36.2143 16.6054C37.2143 16.6054 38.025 17.4159 38.025 18.4156C38.025 19.4153 37.2143 20.2258 36.2143 20.2258C35.2142 20.2258 34.4036 19.4153 34.4036 18.4156C34.4036 17.4159 35.2142 16.6054 36.2143 16.6054Z" fill="#FFF100"/>
<path d="M64.7988 32.4002V7.2002H86.3988V10.8002H89.9988V21.6002H86.3988V25.2002H71.9988V32.4002H64.7988ZM71.9988 21.6002H82.7988V10.8002H71.9988V21.6002Z" fill="white"/>
<path d="M93.5988 32.4002V14.4002H97.1988V10.8002H100.799V7.2002H111.599V10.8002H115.199V14.4002H118.799V32.4002H111.599V25.2002H100.799V32.4002H93.5988ZM100.799 21.6002H111.599V14.4002H107.999V10.8002H104.399V14.4002H100.799V21.6002Z" fill="white"/>
<path d="M129.599 32.4002V28.8002H125.999V25.2002H122.399V14.4002H125.999V10.8002H129.599V7.2002H143.999V10.8002H147.599V14.4002H140.399V10.8002H133.199V14.4002H129.599V25.2002H133.199V28.8002H140.399V25.2002H147.599V28.8002H143.999V32.4002H129.599Z" fill="white"/>
<path d="M151.199 32.4002V7.2002H158.399V10.8002H161.999V14.4002H165.599V10.8002H169.199V7.2002H176.399V32.4002H169.199V18.0002H165.599V25.2002H161.999V18.0002H158.399V32.4002H151.199Z" fill="white"/>
<path d="M179.999 32.4002V14.4002H183.599V10.8002H187.199V7.2002H197.999V10.8002H201.599V14.4002H205.199V32.4002H197.999V25.2002H187.199V32.4002H179.999ZM187.199 21.6002H197.999V14.4002H194.399V10.8002H190.799V14.4002H187.199V21.6002Z" fill="white"/>
<path d="M208.799 32.4002V7.2002H215.999V10.8002H219.599V14.4002H223.199V18.0002H226.799V7.2002H233.999V32.4002H226.799V25.2002H223.199V21.6002H219.599V18.0002H215.999V32.4002H208.799Z" fill="white"/>
<path d="M69.0295 55.5444V53.4319H66.9142V51.3194H64.7988V44.9818H66.9142V42.8693H69.0295V40.7568H79.6063V42.8693H71.1449V44.9818H69.0295V51.3194H71.1449V53.4319H75.3756V49.2069H73.2603V47.0944H79.6063V55.5444H69.0295Z" fill="white"/>
<path d="M81.7217 55.5444V44.9818H83.8371V42.8693H85.9524V40.7568H92.2985V42.8693H94.4139V44.9818H96.5292V55.5444H92.2985V51.3194H85.9524V55.5444H81.7217ZM85.9524 49.2069H92.2985V44.9818H90.1831V42.8693H88.0678V44.9818H85.9524V49.2069Z" fill="white"/>
<path d="M98.6446 55.5444V40.7568H102.875V42.8693H104.991V44.9818H107.106V42.8693H109.221V40.7568H113.452V55.5444H109.221V47.0944H107.106V51.3194H104.991V47.0944H102.875V55.5444H98.6446Z" fill="white"/>
<path d="M115.567 55.5444V40.7568H130.375V42.8693H119.798V47.0944H128.26V49.2069H119.798V53.4319H130.375V55.5444H115.567Z" fill="white"/>
<path d="M141.044 55.5444V53.4319H138.929V51.3194H136.813V44.9818H138.929V42.8693H141.044V40.7568H149.505V42.8693H151.621V44.9818H147.39V42.8693H143.159V44.9818H141.044V51.3194H143.159V53.4319H147.39V51.3194H151.621V53.4319H149.505V55.5444H141.044Z" fill="white"/>
<path d="M153.736 55.5444V40.7568H168.544V42.8693H157.967V47.0944H166.428V49.2069H157.967V53.4319H168.544V55.5444H153.736Z" fill="white"/>
<path d="M170.659 55.5444V40.7568H174.89V42.8693H177.005V44.9818H179.12V47.0944H181.236V40.7568H185.466V55.5444H181.236V51.3194H179.12V49.2069H177.005V47.0944H174.89V55.5444H170.659Z" fill="white"/>
<path d="M191.692 55.5444V42.8693H187.461V40.7568H200.153V42.8693H195.922V55.5444H191.692Z" fill="white"/>
<path d="M202.268 55.5444V40.7568H217.076V42.8693H206.499V47.0944H214.961V49.2069H206.499V53.4319H217.076V55.5444H202.268Z" fill="white"/>
<path d="M219.191 55.5444V40.7568H231.883V42.8693H233.999V49.2069H229.768V51.3194H231.883V53.4319H233.999V55.5444H227.653V53.4319H225.537V51.3194H223.422V55.5444H219.191ZM223.422 49.2069H227.653V47.0944H229.768V42.8693H223.422V49.2069Z" fill="white"/>
</svg>
