<svg width="22" height="28" viewBox="0 0 22 28" fill="none" xmlns="http://www.w3.org/2000/svg">
<path fill-rule="evenodd" clip-rule="evenodd" d="M19.854 9.24794C20.3521 9.24794 20.8502 9.45358 21.1988 9.81344C21.4977 10.1733 21.7467 10.636 21.7467 11.2015V17.3705C21.7467 17.8846 21.4977 18.3986 21.1988 18.7585H21.149C20.8502 19.1184 20.3521 19.324 19.854 19.324C19.356 19.324 18.8579 19.1184 18.5093 18.7585V18.7071C18.1606 18.3472 17.9614 17.8846 17.9614 17.3705V11.2015C17.9614 10.636 18.2104 10.1733 18.5093 9.81344C18.8579 9.45358 19.356 9.24794 19.854 9.24794Z" fill="#0D0D0D"/>
<path fill-rule="evenodd" clip-rule="evenodd" d="M2.17268 9.24794C2.67075 9.24794 3.11901 9.45358 3.46766 9.81344C3.8163 10.1733 4.01553 10.636 4.01553 11.2015V17.3705C4.01553 17.8846 3.8163 18.3986 3.46766 18.7585C3.11901 19.1184 2.67075 19.324 2.17268 19.324C1.62481 19.324 1.17655 19.1184 0.827902 18.7585C0.479256 18.3986 0.280029 17.936 0.280029 17.3705V11.2015C0.280029 10.636 0.479256 10.1733 0.827902 9.81344C1.17655 9.45358 1.62481 9.24794 2.17268 9.24794Z" fill="#0D0D0D"/>
<path fill-rule="evenodd" clip-rule="evenodd" d="M17.7103 9.76203V19.6324C17.7103 20.2493 17.4612 20.8148 17.0628 21.2261C16.7141 21.586 16.1662 21.843 15.5686 21.843H15.4191V25.1331C15.4191 25.6472 15.1701 26.1099 14.8713 26.4698H14.8215C14.5226 26.8296 14.0246 27.0352 13.5265 27.0352C13.0284 27.0352 12.5304 26.8296 12.1817 26.4698C11.8331 26.1099 11.6338 25.6472 11.6338 25.1331V21.843H10.3389V25.1331C10.3389 25.6472 10.1396 26.1613 9.791 26.4698C9.44235 26.8296 8.99409 27.0352 8.49603 27.0352C7.94815 27.0352 7.49989 26.8296 7.15125 26.4698C6.8026 26.1099 6.60337 25.6472 6.60337 25.1331V21.843H6.45395C5.85627 21.843 5.3084 21.586 4.90995 21.2261V21.1747C4.51149 20.7634 4.31227 20.2493 4.31227 19.6324V9.76203C4.31227 9.50499 4.51149 9.24794 4.81033 9.24794H17.2122C17.511 9.24794 17.7103 9.50499 17.7103 9.76203Z" fill="#0D0D0D"/>
<path fill-rule="evenodd" clip-rule="evenodd" d="M10.9864 2.05058C11.8829 2.05058 12.7794 2.25621 13.5763 2.56466L14.6222 1.17664C14.7717 0.919594 15.0705 0.919594 15.3195 1.07382C15.5188 1.22804 15.5686 1.5879 15.4191 1.79354L14.4728 3.02734C14.8215 3.28438 15.1701 3.54142 15.5188 3.84987C16.7141 4.98086 17.511 6.52311 17.6604 8.3224C17.7103 8.57944 17.511 8.83649 17.262 8.83649H17.2122V8.8879H4.81033C4.5613 8.8879 4.31227 8.63085 4.31227 8.37381C4.31227 8.3224 4.31227 8.27099 4.31227 8.27099C4.51149 6.52311 5.3084 4.98086 6.50376 3.84987C6.75279 3.64424 7.00183 3.43861 7.25086 3.23297L6.20492 1.79354C6.00569 1.5879 6.0555 1.22804 6.25473 1.07382C6.50376 0.919594 6.8026 0.919594 6.95202 1.17664L8.14738 2.71889C8.99409 2.30762 9.99022 2.05058 10.9864 2.05058ZM8.84467 4.98086C9.29293 4.98086 9.64158 5.34072 9.64158 5.80339C9.64158 6.26607 9.29293 6.62593 8.84467 6.62593C8.39641 6.62593 7.99796 6.26607 7.99796 5.80339C7.99796 5.34072 8.39641 4.98086 8.84467 4.98086ZM13.1779 4.98086C13.6261 4.98086 13.9748 5.34072 13.9748 5.80339C13.9748 6.26607 13.6261 6.62593 13.1779 6.62593C12.7296 6.62593 12.3809 6.26607 12.3809 5.80339C12.3809 5.34072 12.7296 4.98086 13.1779 4.98086Z" fill="#0D0D0D"/>
</svg>
