<svg width="45" height="44" viewBox="0 0 45 44" fill="none" xmlns="http://www.w3.org/2000/svg">
<path d="M22.6758 44C34.826 44 44.6758 34.1503 44.6758 22C44.6758 9.84974 34.826 0 22.6758 0C10.5255 0 0.675781 9.84974 0.675781 22C0.675781 34.1503 10.5255 44 22.6758 44Z" fill="#0332FF"/>
<path d="M29.5233 22.0075C28.8038 18.4413 32.2418 16.35 32.2418 16.35C32.2418 16.35 30.9013 14.4441 28.6512 13.9548C26.401 13.462 25.2751 14.0741 24.1517 14.5386C23.0267 14.9987 22.465 14.9987 22.465 14.9987C20.8419 14.9987 19.6549 13.3075 16.5596 14.0801C14.4307 14.609 12.1858 17.0299 11.7802 19.9214C11.3738 22.8119 12.2495 26.5009 13.9362 29.3597C15.6247 32.2203 17.3428 33.2968 18.5612 33.3269C19.7796 33.3569 20.998 32.4667 22.4667 32.2486C23.9354 32.0374 24.8373 32.7749 26.2781 33.1741C27.7154 33.5733 28.2177 33.2007 29.8687 31.8176C31.5258 30.4346 33.0285 26.464 33.0285 26.464C33.0285 26.464 30.2437 25.578 29.5233 22.0075Z" fill="white"/>
<path d="M26.3507 11.6477C27.945 10.0466 27.4034 7.57324 27.4034 7.57324C27.4034 7.57324 25.1655 7.95699 23.6662 9.49457C22.1653 11.0339 22.4138 13.46 22.4138 13.46C22.4138 13.46 24.7547 13.2471 26.3507 11.6477Z" fill="white"/>
</svg>
