<svg width="14" height="14" viewBox="0 0 14 14" fill="none" xmlns="http://www.w3.org/2000/svg">
<path d="M0.636365 2.04982C0.245841 1.6593 0.245841 1.02613 0.636365 0.635607C1.02689 0.245084 1.66005 0.245083 2.05058 0.635607L13.3643 11.9493C13.7548 12.3398 13.7548 12.973 13.3643 13.3635C12.9738 13.7541 12.3406 13.7541 11.9501 13.3635L0.636365 2.04982Z" fill="#010001"/>
<path d="M2.05038 13.3642C1.65986 13.7547 1.02669 13.7547 0.636171 13.3642C0.245647 12.9737 0.245647 12.3405 0.636171 11.95L11.9499 0.636276C12.3404 0.245753 12.9736 0.245753 13.3641 0.636276C13.7546 1.0268 13.7546 1.65997 13.3641 2.05049L2.05038 13.3642Z" fill="#010001"/>
</svg>
