<svg width="49" height="48" viewBox="0 0 49 48" fill="none" xmlns="http://www.w3.org/2000/svg">
<path d="M32.5401 35.9964C32.5401 35.9964 31.5159 34.7679 30.6623 33.6824C32.7246 33.1948 34.5487 31.9907 35.812 30.2829C34.7883 30.9671 33.6906 31.5324 32.5401 31.9682C31.2165 32.5355 29.8323 32.9477 28.4147 33.1967C25.9781 33.6472 23.4791 33.6375 21.0459 33.1682C19.6175 32.8875 18.2176 32.4763 16.8637 31.9399C16.1499 31.6642 15.4559 31.3397 14.7865 30.9685C14.7013 30.9113 14.6159 30.8828 14.5306 30.8256C14.4878 30.8042 14.4492 30.7753 14.4168 30.74C13.9047 30.4544 13.6202 30.2544 13.6202 30.2544C14.8377 31.9264 16.5989 33.1187 18.5991 33.6251C17.7457 34.7109 16.6929 35.9962 16.6929 35.9962C15.0029 36.0419 13.3276 35.6698 11.8144 34.9127C10.3013 34.1555 8.99665 33.0365 8.0154 31.6542C8.10777 25.8628 9.50862 20.1681 12.1123 14.9995C14.4036 13.1926 17.197 12.1445 20.107 12L20.3915 12.3429C17.6537 13.023 15.0989 14.3008 12.9089 16.0851C12.9089 16.0851 13.5348 15.7424 14.5874 15.2567C16.6325 14.3194 18.8122 13.712 21.0459 13.457C21.2052 13.4238 21.3671 13.4047 21.5296 13.3998C23.4362 13.1504 25.3657 13.1313 27.2768 13.3428C30.2821 13.6874 33.1913 14.619 35.8404 16.0851C33.7613 14.3859 31.3467 13.1493 28.7561 12.4572L29.1544 12.0002C32.0643 12.1446 34.8578 13.1927 37.1491 14.9997C39.7529 20.1682 41.1538 25.8628 41.2462 31.6542C40.257 33.0352 38.9467 34.1526 37.4294 34.9094C35.9121 35.6661 34.2337 36.0394 32.5401 35.9964ZM19.3104 22.6556C18.538 22.6556 17.7973 22.9637 17.2511 23.5121C16.705 24.0605 16.3982 24.8042 16.3982 25.5797C16.3982 26.3552 16.705 27.099 17.2512 27.6474C17.7973 28.1957 18.5381 28.5038 19.3104 28.5038C20.0828 28.5038 20.8236 28.1957 21.3697 27.6474C21.9159 27.099 22.2227 26.3552 22.2227 25.5797C22.2227 24.8042 21.9159 24.0605 21.3698 23.5121C20.8236 22.9637 20.0827 22.6556 19.3104 22.6556ZM29.6951 22.6556C29.0591 22.6015 28.4217 22.7414 27.8662 23.0571C27.3108 23.3728 26.8632 23.8495 26.5821 24.4249C26.301 25.0002 26.1995 25.6474 26.2908 26.2816C26.3821 26.9159 26.662 27.5077 27.0938 27.9796C27.5257 28.4515 28.0893 28.7815 28.7111 28.9263C29.3328 29.0712 29.9836 29.0242 30.5783 28.7915C31.173 28.5588 31.6838 28.1513 32.044 27.6222C32.4042 27.0931 32.5969 26.4672 32.5968 25.8264C32.6138 25.4268 32.5523 25.0278 32.4156 24.6522C32.279 24.2765 32.0699 23.9316 31.8004 23.6371C31.5309 23.3427 31.2063 23.1044 30.845 22.936C30.4838 22.7676 30.093 22.6723 29.6951 22.6556Z" fill="black"/>
</svg>
