<svg width="80" height="78" viewBox="0 0 80 78" fill="none" xmlns="http://www.w3.org/2000/svg">
<path d="M79.8578 77.7602L79.8393 77.4221V33.0848L73.5954 33.1975L73.4844 14.6294H68.0543L67.9433 8.66509H62.2903V2.92619L50.8742 2.81252L50.6523 -9.91821e-05H27.5973L27.4873 2.69982L16.6251 2.81252L16.6251 8.5524L10.6392 8.4397V14.2913H4.43325L4.32226 32.2969L0 32.1842L0.110003 77.6475H4.43325L4.46148 72.922H10.5292L10.5292 66.5069L16.6621 66.4699V72.4712L22.4261 72.546L22.4991 77.872L33.2143 77.9478V66.4699L44.4454 66.3942L44.3714 77.872L57.3022 77.9478L57.3761 72.171H62.6232L62.5668 66.3942H67.8878L67.9433 72.1331L73.4844 72.0204V77.8166L79.8578 77.7602Z" fill="#EC2224"/>
<path d="M62.9557 20.2428H56.5268V14.7128H44.7788V20.2428H39.6807V37.1671H44.7788V43.1401H56.5268V37.1671H62.9557V20.2428Z" fill="white"/>
<path d="M28.3746 20.6281H21.9457V15.1544H10.1977V20.6281H5.09961L5.09961 37.3765H10.1977V43.2874H21.9457V37.3765H28.3746L28.3746 20.6281Z" fill="white"/>
<path d="M50.7638 37.1304H39.6797V26.6222H50.7638V37.1304Z" fill="black"/>
<path d="M16.1817 37.3394H5.09766L5.09766 26.94H16.1817V37.3394Z" fill="black"/>
</svg>
