<svg width="24" height="24" viewBox="0 0 24 24" fill="none" xmlns="http://www.w3.org/2000/svg">
<g clip-path="url(#clip0_431_150)">
<path d="M1.995 21.5717L10.395 23.8912C10.8132 24.0067 11.2549 24.0307 11.6849 23.9611C12.1149 23.8915 12.5212 23.7303 12.8715 23.4904C13.2217 23.2505 13.5062 22.9386 13.7021 22.5795C13.8981 22.2204 14.0001 21.8241 14 21.4222V2.57776C14.0001 2.17592 13.8981 1.77962 13.7021 1.42051C13.5062 1.06141 13.2217 0.749462 12.8715 0.509577C12.5212 0.269692 12.1149 0.10852 11.6849 0.0389343C11.2549 -0.0306516 10.8132 -0.00672334 10.395 0.108808L1.995 2.42829C1.41823 2.58764 0.912642 2.9139 0.553264 3.35866C0.193886 3.80341 -0.000132027 4.34296 6.74066e-08 4.89724V19.1028C-0.000132027 19.657 0.193886 20.1966 0.553264 20.6413C0.912642 21.0861 1.41823 21.4124 1.995 21.5717Z" fill="black"/>
<path d="M17 12H23M23 12L20.6 10M23 12L20.6 14" stroke="black" stroke-width="1.5" stroke-linecap="round" stroke-linejoin="round"/>
<circle cx="9" cy="12" r="1" fill="#FFF100"/>
</g>
<defs>
<clipPath id="clip0_431_150">
<rect width="24" height="24" fill="white"/>
</clipPath>
</defs>
</svg>
