<svg width="14" height="14" viewBox="0 0 14 14" fill="none" xmlns="http://www.w3.org/2000/svg">
<path fill-rule="evenodd" clip-rule="evenodd" d="M11.7627 3.76705C12.5208 4.49736 13.1744 5.44111 13.7237 6.5983C13.7831 6.72411 13.8139 6.86151 13.8139 7.00065C13.8139 7.13978 13.7831 7.27719 13.7237 7.40299C12.2456 10.5311 10.0049 12.0952 7.0018 12.0952C5.91847 12.0952 4.93409 11.8908 4.04867 11.4819L4.91008 10.6205C5.54758 10.8536 6.24482 10.9702 7.0018 10.9702C9.52367 10.9702 11.369 9.69205 12.669 7.00143C12.1807 5.99205 11.616 5.18158 10.9677 4.56205L11.7627 3.76705ZM12.0643 0.921426L12.7304 1.5883C12.742 1.59991 12.7512 1.6137 12.7575 1.62887C12.7638 1.64405 12.7671 1.66031 12.7671 1.67674C12.7671 1.69317 12.7638 1.70943 12.7575 1.72461C12.7512 1.73978 12.742 1.75357 12.7304 1.76518L1.60305 12.8921C1.57961 12.9155 1.54783 12.9286 1.51469 12.9286C1.48155 12.9286 1.44977 12.9155 1.42633 12.8921L0.759299 12.225C0.735875 12.2016 0.722717 12.1698 0.722717 12.1367C0.722717 12.1035 0.735875 12.0717 0.759299 12.0483L2.41274 10.3953C1.58138 9.64523 0.870445 8.6483 0.279924 7.40455C0.220511 7.27874 0.189697 7.14134 0.189697 7.00221C0.189697 6.86308 0.220511 6.72567 0.279924 6.59986C1.75805 3.47174 3.99867 1.90768 7.0018 1.90768C8.17742 1.90768 9.23633 2.1483 10.1785 2.62955L11.8874 0.921426C11.899 0.909804 11.9128 0.900585 11.928 0.894294C11.9432 0.888003 11.9594 0.884766 11.9759 0.884766C11.9923 0.884766 12.0086 0.888003 12.0237 0.894294C12.0389 0.900585 12.0527 0.909804 12.0643 0.921426ZM7.0018 3.03268C4.48149 3.03268 2.63617 4.3108 1.33461 7.00143C1.86586 8.09955 2.48774 8.96221 3.20914 9.59893L4.51258 8.29549C4.23502 7.77528 4.13201 7.17964 4.21875 6.59644C4.30548 6.01323 4.57736 5.47334 4.99429 5.05641C5.41121 4.63949 5.9511 4.36761 6.53431 4.28087C7.11751 4.19414 7.71316 4.29715 8.23336 4.57471L9.3318 3.47627C8.62883 3.17893 7.85399 3.03268 7.0018 3.03268ZM5.37978 6.20877C5.25484 6.45433 5.18957 6.7259 5.1893 7.00143C5.1891 7.18278 5.21709 7.36305 5.27227 7.5358L7.47367 5.3344C7.2112 5.25062 6.93266 5.22993 6.66068 5.27402C6.38871 5.31812 6.13097 5.42574 5.90841 5.58816C5.68585 5.75058 5.50473 5.9632 5.37978 6.20877ZM6.77941 8.74661C6.83222 8.75145 6.8855 8.75395 6.93956 8.75395C7.16941 8.75407 7.39703 8.70889 7.6094 8.62099C7.82178 8.53309 8.01475 8.40419 8.17727 8.24166C8.3398 8.07914 8.4687 7.88617 8.5566 7.67379C8.6445 7.46142 8.68969 7.2338 8.68956 7.00395C8.68956 6.94989 8.68706 6.89661 8.68222 6.84379L9.50753 6.01848C9.69763 6.51487 9.73988 7.0557 9.62916 7.57559C9.51844 8.09548 9.2595 8.57217 8.88364 8.94803C8.50778 9.32389 8.03109 9.58283 7.5112 9.69355C6.99131 9.80427 6.45048 9.76202 5.95409 9.57192L6.77941 8.74661Z" fill="#FFF100"/>
</svg>
