<svg width="14" height="14" viewBox="0 0 14 14" fill="none" xmlns="http://www.w3.org/2000/svg">
<g clip-path="url(#clip0_320_656)">
<path d="M13.722 6.59785C12.2407 3.47754 10.0017 1.90723 7.00009 1.90723C3.99697 1.90723 1.75947 3.47754 0.278215 6.59941C0.218802 6.72522 0.187988 6.86263 0.187988 7.00176C0.187988 7.14089 0.218802 7.27829 0.278215 7.4041C1.75947 10.5244 3.99853 12.0947 7.00009 12.0947C10.0032 12.0947 12.2407 10.5244 13.722 7.40254C13.8423 7.14941 13.8423 6.85566 13.722 6.59785ZM7.00009 10.9697C4.47978 10.9697 2.63447 9.6916 1.3329 7.00098C2.63447 4.31035 4.47978 3.03223 7.00009 3.03223C9.5204 3.03223 11.3657 4.31035 12.6673 7.00098C11.3673 9.6916 9.52197 10.9697 7.00009 10.9697ZM6.93759 4.25098C5.41884 4.25098 4.18759 5.48223 4.18759 7.00098C4.18759 8.51973 5.41884 9.75098 6.93759 9.75098C8.45634 9.75098 9.68759 8.51973 9.68759 7.00098C9.68759 5.48223 8.45634 4.25098 6.93759 4.25098ZM6.93759 8.75098C5.9704 8.75098 5.18759 7.96816 5.18759 7.00098C5.18759 6.03379 5.9704 5.25098 6.93759 5.25098C7.90478 5.25098 8.68759 6.03379 8.68759 7.00098C8.68759 7.96816 7.90478 8.75098 6.93759 8.75098Z" fill="#FFF100"/>
</g>
<defs>
<clipPath id="clip0_320_656">
<rect width="14" height="14" fill="white"/>
</clipPath>
</defs>
</svg>
