<svg width="11" height="18" viewBox="0 0 11 18" fill="none" xmlns="http://www.w3.org/2000/svg">
<g clip-path="url(#clip0_768_1563)">
<path d="M11 2.02616V0.190375C11 0.0312577 10.8221 -0.056613 10.7019 0.0407571L0.284276 8.40272C0.195764 8.47346 0.124143 8.56404 0.0748767 8.66755C0.0256103 8.77106 0 8.88477 0 9C0 9.11523 0.0256103 9.22894 0.0748767 9.33245C0.124143 9.43596 0.195764 9.52654 0.284276 9.59728L10.7019 17.9592C10.8244 18.0566 11 17.9687 11 17.8096V15.9738C11 15.8575 10.9468 15.7459 10.859 15.6746L2.53973 9.00119L10.859 2.32539C10.9468 2.25415 11 2.14253 11 2.02616Z" fill="#FFF100"/>
</g>
<defs>
<clipPath id="clip0_768_1563">
<rect width="11" height="18" fill="white"/>
</clipPath>
</defs>
</svg>
