<svg width="32" height="25" viewBox="0 0 32 25" fill="none" xmlns="http://www.w3.org/2000/svg">
<path d="M-0.00195312 0H31.998V25H-0.00195312V0Z" fill="#9BC9FF"/>
<path d="M-0.00195312 0H15.998V25H-0.00195312V0Z" fill="#BDDBFF"/>
<path d="M31.998 5.71432V0H-0.00195312V5.71432H3.47629V7.85716H6.25891V10H9.04153V12.1429H11.8241V14.2857H14.6067V16.4286H17.3893V14.2857H20.172V12.1429H22.9545V10H25.7371V7.85716H28.5198V5.71432H31.998Z" fill="#57A4FF"/>
<path d="M15.998 0V16.4286H17.3894V14.2857H20.172V12.1429H22.9545V10H25.7372V7.85716H28.5198V5.71432H31.998V0H15.998Z" fill="#2488FF"/>
<path d="M-0.00195312 0V25H31.998V0H-0.00195312ZM29.9111 3.57148H28.5198V5.71432H29.9111V22.8572H2.08498V5.71432H3.47629V3.57148H2.08498V2.1429H29.911V3.57148H29.9111Z" fill="#0D0D0D"/>
<path d="M14.6067 14.2863H17.3894V16.4291H14.6067V14.2863ZM17.3894 12.1434H20.172V14.2863H17.3894V12.1434ZM11.8241 12.1434H14.6067V14.2863H11.8241V12.1434ZM9.04156 10.0005H11.8242V12.1434H9.04156V10.0005ZM20.172 10.0005H22.9546V12.1434L20.172 12.1434V10.0005ZM6.25894 7.85768H9.04156V10.0005H6.25894V7.85768ZM22.9545 7.85768H25.7372V10.0005H22.9545V7.85768ZM3.47632 5.71484H6.25894V7.85768H3.47632V5.71484ZM25.7372 5.71484H28.5198V7.85768H25.7372V5.71484Z" fill="#0D0D0D"/>
</svg>
