<svg width="16.000000" height="16.000000" viewBox="0 0 16 16" fill="none" xmlns="http://www.w3.org/2000/svg" xmlns:xlink="http://www.w3.org/1999/xlink">
	<desc>
			Created with Pixso.
	</desc>
	<defs/>
	<path id="Vector" d="M0.318115 14.1455C-0.105957 14.5696 -0.105957 15.2576 0.318115 15.6819C0.742432 16.106 1.43042 16.106 1.85449 15.6819L8 9.53638L14.1455 15.6819C14.5696 16.106 15.2576 16.106 15.6819 15.6819C16.106 15.2576 16.106 14.5696 15.6819 14.1455L9.53638 8L15.6819 1.85449C16.106 1.43042 16.106 0.742432 15.6819 0.318115C15.2576 -0.105957 14.5696 -0.105957 14.1455 0.318115L8 6.46362L1.85449 0.318115C1.43042 -0.105957 0.742432 -0.105957 0.318115 0.318115C-0.105957 0.742432 -0.105957 1.43042 0.318115 1.85449L6.46362 8L0.318115 14.1455Z" fill="#FFFFFF" fill-opacity="1.000000" fill-rule="evenodd"/>
</svg>
