<svg width="62" height="22" viewBox="0 0 62 22" fill="none" xmlns="http://www.w3.org/2000/svg">
<path d="M24.7271 0H27.2071H36.6894C39.1065 0 41.0659 1.9569 41.0659 4.37086V21.7449C41.0659 21.8858 40.9516 22 40.8107 22H36.9364C36.8 22 36.6894 21.8899 36.6894 21.7542V16.591C36.6894 16.3194 36.4682 16.0993 36.1954 16.0993H27.1176C26.8447 16.0993 26.6235 16.3194 26.6235 16.591V21.7542C26.6235 21.8899 26.5129 22 26.3765 22H22.4941C22.3577 22 22.2471 21.8899 22.2471 21.7542V16.0993C22.2471 13.6854 24.2065 11.7285 26.6235 11.7285H36.1954C36.4682 11.7285 36.6894 11.5084 36.6894 11.2369V4.86248C36.6894 4.59097 36.4682 4.37086 36.1954 4.37086H24.8713C24.7822 4.37086 24.7 4.32311 24.6562 4.24591L22.2471 0H24.7271Z" fill="#0D0D0D"/>
<path d="M59.52 0H57.04H48.36C45.9429 0 43.9835 1.9569 43.9835 4.37086V17.6291C43.9835 20.0431 45.9429 22 48.36 22H61.753C61.8894 22 62 21.8899 62 21.7542V17.875C62 17.7392 61.8894 17.6291 61.753 17.6291H48.854C48.5812 17.6291 48.36 17.409 48.36 17.1375V4.86248C48.36 4.59097 48.5812 4.37086 48.854 4.37086H59.3758C59.4649 4.37086 59.5471 4.32311 59.5909 4.24591L61.9383 0.108762C61.9658 0.0601997 61.9307 0 61.8748 0H59.52Z" fill="#0D0D0D"/>
<path fill-rule="evenodd" clip-rule="evenodd" d="M4.96 0H2.48H0L2.48 4.37086L2.48 21.7542C2.48 21.8899 2.59059 22 2.72701 22H6.60946C6.74588 22 6.85647 21.8899 6.85647 21.7542V16.9735H16.12C18.5371 16.9735 20.4965 15.0166 20.4965 12.6026V4.37086C20.4965 1.9569 18.5371 0 16.12 0H4.96ZM15.5025 4.37086H7.474H6.85647V4.98539V11.9881V12.6026H7.474H15.5025C15.8435 12.6026 16.12 12.3275 16.12 11.9881V4.98539C16.12 4.64599 15.8435 4.37086 15.5025 4.37086Z" fill="#0D0D0D"/>
</svg>
