<svg width="11" height="18" viewBox="0 0 11 18" fill="none" xmlns="http://www.w3.org/2000/svg">
<g clip-path="url(#clip0_768_1555)">
<path d="M10.7157 8.4015L0.298109 0.0405534C0.270888 0.0185318 0.238173 0.00484645 0.203724 0.0010687C0.169274 -0.00270905 0.134486 0.00357408 0.103355 0.0191967C0.0722236 0.0348192 0.0460123 0.0591476 0.0277305 0.0893877C0.00944857 0.119628 -0.000162254 0.154553 2.07249e-06 0.190153V2.02571C2.07249e-06 2.14207 0.0531531 2.25368 0.140968 2.32491L8.46024 8.9999L0.140968 15.6749C0.0508422 15.7461 2.07249e-06 15.8577 2.07249e-06 15.9741V17.8096C2.07249e-06 17.9687 0.177942 18.0566 0.298109 17.9592L10.7157 9.5983C10.8042 9.52733 10.8759 9.43654 10.9251 9.33285C10.9744 9.22916 11 9.11529 11 8.9999C11 8.88451 10.9744 8.77064 10.9251 8.66695C10.8759 8.56326 10.8042 8.47247 10.7157 8.4015Z" fill="#FFF100"/>
</g>
<defs>
<clipPath id="clip0_768_1555">
<rect width="11" height="18" fill="white"/>
</clipPath>
</defs>
</svg>
