
<svg width="76" height="85" viewBox="0 0 76 85" fill="none" xmlns="http://www.w3.org/2000/svg">
<path d="M74.4725 11.8961C74.3987 11.3598 74.1717 10.857 73.8194 10.4495C73.4671 10.042 73.0049 9.74758 72.4895 9.60241L38.7356 0.10167C38.2544 -0.0338901 37.7458 -0.0338901 37.2646 0.10167L3.51076 9.60241C2.99531 9.7475 2.533 10.0419 2.18069 10.4494C1.82838 10.8569 1.60143 11.3598 1.52776 11.8961C1.33198 13.3209 -3.13425 46.9861 8.32133 63.7335C19.7634 80.4609 36.6429 84.7476 37.3557 84.922C37.7792 85.0258 38.221 85.0258 38.6445 84.922C39.3577 84.7476 56.2372 80.4609 67.6789 63.7335C79.1345 46.9865 74.6682 13.3213 74.4725 11.8961ZM59.767 31.5502L36.7435 54.8528C36.2078 55.395 35.5052 55.6665 34.8029 55.6665C34.1007 55.6665 33.3981 55.3954 32.8624 54.8528L18.6272 40.445C18.3722 40.1871 18.17 39.8809 18.032 39.5439C17.894 39.2069 17.823 38.8457 17.823 38.4809C17.823 38.1161 17.894 37.7549 18.032 37.4179C18.17 37.0809 18.3722 36.7747 18.6272 36.5168L21.4536 33.6561C21.9683 33.1352 22.6664 32.8426 23.3942 32.8426C24.122 32.8426 24.8201 33.1352 25.3347 33.6561L34.8029 43.2391L53.0594 24.7609C53.3142 24.5029 53.6167 24.2982 53.9497 24.1585C54.2826 24.0189 54.6395 23.947 55 23.947C55.3604 23.947 55.7173 24.0189 56.0503 24.1585C56.3832 24.2982 56.6858 24.5029 56.9405 24.7609L59.767 27.6217C60.0219 27.8796 60.2241 28.1858 60.362 28.5229C60.4999 28.8599 60.5709 29.2211 60.5709 29.5859C60.5709 29.9507 60.4999 30.3119 60.362 30.649C60.2241 30.986 60.0219 31.2922 59.767 31.5502Z" fill="#FFF100"/>
</svg>
