<svg width="89" height="86" viewBox="0 0 89 86" fill="none" xmlns="http://www.w3.org/2000/svg">
<path d="M2.98868 68.6766L4.2196 69.2735L2.34499 76.6463L2.39357 76.6699L7.58846 70.907L8.7546 71.4724L7.2687 79.0338L7.31729 79.0573L12.0749 73.0824L13.3058 73.6793L7.35404 80.7555L6.05833 80.1273L7.50448 72.6067L7.45589 72.5831L2.28457 78.2974L0.972656 77.6613L2.98868 68.6766Z" fill="white"/>
<path d="M12.9096 81.2135L13.4325 78.9881L15.2029 77.9064L19.864 79.0016L20.2551 77.3369L19.5807 76.2724L16.6018 75.5725L15.5239 76.2253L15.3551 76.9437L14.0584 76.639L14.3137 75.5526L16.3046 74.3193L20.3874 75.2786L21.6207 77.2695L19.9491 84.3837L18.705 84.0914L19.0673 82.5494L17.0929 83.7126L14.0089 82.988L12.9096 81.2135ZM17.0936 82.5294L19.3493 81.1919L19.6005 80.123L15.5001 79.1596L14.6386 79.6783L14.2928 81.1502L14.8331 81.9983L17.0936 82.5294Z" fill="white"/>
<path d="M25.0069 83.239L25.3718 77.1119L23.7547 77.0156L23.8242 75.8477L25.4773 75.9461L25.6506 73.0353L26.9444 73.1123L26.771 76.0231L29.574 76.1901L29.5045 77.358L26.7015 77.1911L26.3612 82.905L27.2061 83.8569L29.1107 83.9703L29.0412 85.1382L26.5616 84.9906L25.0069 83.239Z" fill="white"/>
<path d="M32.5154 83.4517L31.8802 77.8355L33.3396 76.0039L37.6322 75.5183L39.4638 76.9777L39.5872 78.0687L38.2637 78.2185L38.1868 77.5388L37.1934 76.7635L34.0454 77.1196L33.2503 78.0972L33.7925 82.8906L34.7859 83.6659L37.9338 83.3098L38.729 82.3322L38.6521 81.6526L39.9757 81.5029L40.0991 82.5939L38.6397 84.4255L34.3471 84.9111L32.5154 83.4517Z" fill="white"/>
<path d="M40.2107 71.1366L41.4781 70.727L43.2496 76.2078L44.4551 73.8508L47.1099 72.9928L49.1949 74.0592L51.4424 81.0131L50.175 81.4227L48.0548 74.8628L46.9272 74.3003L45.163 74.8705L43.7256 77.6808L45.4306 82.9561L44.1632 83.3657L40.2107 71.1366Z" fill="white"/>
<path d="M60.2216 74.5411L56.8143 69.4357L55.4668 70.335L54.8174 69.3618L56.1948 68.4425L54.5761 66.0171L55.6541 65.2976L57.2728 67.7231L59.6084 66.1643L60.2579 67.1375L57.9222 68.6963L61.0997 73.4573L62.3479 73.7063L63.9349 72.6472L64.5844 73.6204L62.5183 74.9993L60.2216 74.5411Z" fill="white"/>
<path d="M58.8178 61.9129L59.7746 60.9863L63.7818 65.1238L63.8242 62.4768L65.8283 60.5357L68.17 60.5732L73.2542 65.8227L72.2974 66.7494L67.5012 61.7973L66.2411 61.7898L64.9093 63.0797L64.8588 66.2358L68.7158 70.2182L67.759 71.1449L58.8178 61.9129Z" fill="white"/>
<path d="M74.7745 61.392L70.0789 58.2463L69.6247 55.9488L72.1394 52.1953L74.4469 51.7262L77.1237 53.5195L73.497 58.9329L75.1719 60.055L76.4056 59.7982L78.279 57.0017L78.0472 55.7631L77.4789 55.3824L78.2203 54.2758L79.1325 54.8869L79.5866 57.1844L77.072 60.9379L74.7745 61.392ZM75.4253 53.9849L74.0495 53.0632L72.8158 53.32L70.9323 56.1315L71.1642 57.3701L72.54 58.2918L75.4253 53.9849Z" fill="white"/>
<path d="M75.8105 45.0882L76.2181 43.7824L84.2972 43.5132L84.3187 43.4444L77.827 38.6276L78.2345 37.3217L85.8101 43.1368L85.3488 44.6145L75.8105 45.0882Z" fill="white"/>
<path d="M76.369 35.3694L75.588 35.2377L75.1453 34.6154L75.277 33.8344L75.8993 33.3917L76.6803 33.5235L77.123 34.1457L76.9912 34.9267L76.369 35.3694ZM78.4373 35.4444L78.6588 34.1309L87.498 35.6217L87.2765 36.9351L78.4373 35.4444Z" fill="white"/>
<path d="M86.4688 31.4477L80.8174 31.3612L79.187 29.68L79.2399 26.2244L80.5583 24.7684L75.3749 24.689L75.3953 23.3572L88.2458 23.554L88.226 24.8498L86.5882 24.8247L88.2009 26.4876L88.1499 29.8172L86.4688 31.4477ZM87.0086 26.7574L85.1478 24.8387L81.9622 24.7899L80.4239 26.4946L80.3836 29.1223L81.2518 30.0357L86.0752 30.1095L86.9709 29.2231L87.0086 26.7574Z" fill="white"/>
<path d="M86.202 19.3911L80.6545 20.4732L78.7121 19.1649L77.8471 14.7305L79.152 12.7704L82.3144 12.1535L83.5619 18.549L85.5406 18.163L86.234 17.1108L85.5896 13.8071L84.5516 13.0926L83.8802 13.2235L83.6252 11.9162L84.7029 11.706L86.6453 13.0143L87.5103 17.4487L86.202 19.3911ZM81.4387 13.6814L79.8134 13.9985L79.12 15.0507L79.7679 18.3721L80.8058 19.0866L82.4312 18.7695L81.4387 13.6814Z" fill="white"/>
<path d="M83.5265 7.92311L78.3211 10.1251L76.1508 9.24514L74.3555 5.00124L75.2355 2.83092L80.4409 0.628906L82.6112 1.50888L84.4065 5.75278L83.5265 7.92311ZM81.7415 2.50221L80.5786 2.01695L76.1357 3.89637L75.6741 5.06889L77.0205 8.25181L78.1835 8.73707L82.6263 6.85765L83.088 5.68514L81.7415 2.50221Z" fill="white"/>
</svg>
