<svg width="49" height="48" viewBox="0 0 49 48" fill="none" xmlns="http://www.w3.org/2000/svg">
<path d="M8.10534 22.5568L31.2453 13.6348C32.3193 13.2468 33.2573 13.8968 32.9093 15.5208L32.9113 15.5188L28.9713 34.0808C28.6793 35.3968 27.8973 35.7168 26.8033 35.0968L20.8033 30.6748L17.9093 33.4628C17.5893 33.7828 17.3193 34.0528 16.6993 34.0528L17.1253 27.9468L28.2453 17.9008C28.7293 17.4748 28.1373 17.2348 27.4993 17.6588L13.7573 26.3108L7.83334 24.4628C6.54734 24.0548 6.51934 23.1768 8.10534 22.5568Z" fill="black"/>
<path d="M31.7052 35.5386V30.2217H36.6086V31.2924H32.7834V32.341H35.8628V33.4192H32.7834V34.4678H36.6086V35.5386H31.7052ZM37.3443 35.5386V30.2217H38.4742L41.5831 33.9287V30.2217H42.6612V35.5386H41.5314L38.4077 31.8167V35.5386H37.3443Z" fill="black"/>
</svg>
