<svg width="48" height="48" viewBox="0 0 48 48" fill="none" xmlns="http://www.w3.org/2000/svg">
<path d="M7.28996 22.5568L30.43 13.6348C31.504 13.2468 32.442 13.8968 32.094 15.5208L32.096 15.5188L28.156 34.0808C27.864 35.3968 27.082 35.7168 25.988 35.0968L19.988 30.6748L17.094 33.4628C16.774 33.7828 16.504 34.0528 15.884 34.0528L16.31 27.9468L27.43 17.9008C27.914 17.4748 27.322 17.2348 26.684 17.6588L12.942 26.3108L7.01796 24.4628C5.73196 24.0548 5.70396 23.1768 7.28996 22.5568Z" fill="black"/>
<path d="M35.0548 34.6155L33.4819 32.7398H34.8775L36.1772 34.2832V34.6155H35.0548ZM30.8751 34.6155V29.3059H35.1212C35.3182 29.3059 35.4954 29.3552 35.6529 29.4536C35.8154 29.5472 35.9459 29.6752 36.0443 29.8376C36.1428 30.0001 36.192 30.1773 36.192 30.3693V31.7724C36.192 31.9644 36.1428 32.1416 36.0443 32.3041C35.9459 32.4616 35.8154 32.5896 35.6529 32.6881C35.4954 32.7816 35.3182 32.8284 35.1212 32.8284L31.9385 32.8358V34.6155H30.8751ZM31.9828 31.7576H35.0695C35.0843 31.7576 35.0942 31.7552 35.0991 31.7502C35.1089 31.7404 35.1139 31.7306 35.1139 31.7207V30.4136C35.1139 30.3989 35.1089 30.389 35.0991 30.3841C35.0942 30.3742 35.0843 30.3693 35.0695 30.3693H31.9828C31.968 30.3693 31.9557 30.3742 31.9459 30.3841C31.9409 30.389 31.9385 30.3989 31.9385 30.4136V31.7207C31.9385 31.7306 31.9409 31.7404 31.9459 31.7502C31.9557 31.7552 31.968 31.7576 31.9828 31.7576ZM38.0175 34.6155C37.8205 34.6155 37.6408 34.5687 37.4784 34.4752C37.3208 34.3767 37.1928 34.2487 37.0944 34.0912C37.0008 33.9287 36.9541 33.749 36.9541 33.5521V29.2986H38.0175V33.5004C38.0175 33.5152 38.0199 33.5275 38.0248 33.5373C38.0347 33.5422 38.047 33.5447 38.0618 33.5447H41.1485C41.1633 33.5447 41.1731 33.5422 41.1781 33.5373C41.1879 33.5275 41.1928 33.5152 41.1928 33.5004V29.2986H42.271V33.5521C42.271 33.749 42.2218 33.9287 42.1233 34.0912C42.0248 34.2487 41.8944 34.3767 41.7319 34.4752C41.5744 34.5687 41.3996 34.6155 41.2076 34.6155H38.0175Z" fill="black"/>
</svg>
