<svg width="24" height="18" viewBox="0 0 24 18" fill="none" xmlns="http://www.w3.org/2000/svg">
<path d="M19.5 13C17.019 13 15 10.981 15 8.5C15 6.019 17.019 4 19.5 4H22V2.75C21.9995 2.02082 21.7096 1.32165 21.194 0.806041C20.6783 0.290431 19.9792 0.000529737 19.25 0H2.75C2.02082 0.000529737 1.32165 0.290431 0.806041 0.806041C0.290431 1.32165 0.000529737 2.02082 0 2.75L0 15.25C0.000529737 15.9792 0.290431 16.6783 0.806041 17.194C1.32165 17.7096 2.02082 17.9995 2.75 18H19.25C19.9792 17.9995 20.6783 17.7096 21.194 17.194C21.7096 16.6783 21.9995 15.9792 22 15.25V13H19.5Z" fill="black"/>
<path d="M23.25 5.5H19.5C17.846 5.5 16.5 6.846 16.5 8.5C16.5 10.154 17.846 11.5 19.5 11.5H23.25C23.4489 11.5 23.6397 11.421 23.7803 11.2803C23.921 11.1397 24 10.9489 24 10.75V6.25C24 6.05109 23.921 5.86032 23.7803 5.71967C23.6397 5.57902 23.4489 5.5 23.25 5.5ZM19.5 9.5C19.2348 9.5 18.9804 9.39464 18.7929 9.20711C18.6054 9.01957 18.5 8.76522 18.5 8.5C18.5 8.23478 18.6054 7.98043 18.7929 7.79289C18.9804 7.60536 19.2348 7.5 19.5 7.5C19.7652 7.5 20.0196 7.60536 20.2071 7.79289C20.3946 7.98043 20.5 8.23478 20.5 8.5C20.5 8.76522 20.3946 9.01957 20.2071 9.20711C20.0196 9.39464 19.7652 9.5 19.5 9.5Z" fill="black"/>
</svg>
