<svg width="28" height="28" viewBox="0 0 28 28" fill="none" xmlns="http://www.w3.org/2000/svg">
<path d="M20.003 9.61081C20.2672 12.5416 20.1976 15.4818 19.8003 18.3932H27.0732C28.0271 15.6594 28.0271 12.3446 27.0732 9.61081H20.003ZM7.97481 9.61081H0.903966C-0.0498572 12.3446 -0.0498572 15.6594 0.903966 18.3932H8.17812C7.78015 15.4827 7.71195 12.5366 7.97481 9.61081ZM9.64274 19.6478C10.1134 22.349 10.8915 25.0904 11.9696 27.6536C12.6291 27.7508 13.303 27.8029 13.9889 27.8029C14.6748 27.8029 15.3487 27.7508 16.0083 27.6536C17.087 25.0904 17.8657 22.3509 18.3363 19.6478H9.64274ZM26.5813 8.35618C25.7881 6.59759 24.6365 5.02379 23.2003 3.73537C21.7641 2.44695 20.0748 1.47226 18.2403 0.873606L18.6319 2.24366C19.2048 4.24563 19.6201 6.28939 19.8738 8.35618H26.5813ZM9.44445 18.3932H18.5346C18.9444 15.4843 19.0147 12.5422 18.7417 9.61081H9.23674C8.964 12.5364 9.03371 15.4838 9.44445 18.3932ZM18.6068 8.35618C18.3094 5.7566 17.5821 3.02905 16.8272 0.495965C14.9554 0.105146 13.0231 0.105146 11.1513 0.495965L10.5533 2.58805C10.0136 4.478 9.61854 6.40628 9.37166 8.35618H18.6068ZM8.36889 19.6478H1.39657C3.09399 23.4161 6.43175 26.2917 10.498 27.355C9.50093 24.8601 8.81756 22.2486 8.36889 19.6478ZM17.7151 26.7653L17.4792 27.355C21.5455 26.2917 24.8838 23.4161 26.5813 19.6478H19.6102C19.1999 22.0738 18.5655 24.4565 17.7151 26.7653ZM8.10408 8.35618C8.39399 5.85509 9.00456 3.3126 9.7375 0.873606C7.90305 1.47226 6.21372 2.44695 4.77751 3.73537C3.34129 5.02379 2.18977 6.59759 1.39657 8.35618H8.10408Z" fill="#0D0D0D"/>
</svg>
