<svg width="22" height="24" viewBox="0 0 22 24" fill="none" xmlns="http://www.w3.org/2000/svg">
<path fill-rule="evenodd" clip-rule="evenodd" d="M0.953 3.81105L8.88264 2.56941L9.50568 2.45116V3.16067V11.0244V11.6157H8.93928H1.06628H0.499878V11.0244V4.40231V3.87018L0.953 3.81105ZM10.7518 2.27378L21.3435 0.618252L21.9665 0.5V1.15039V11.0244V11.6157H21.4001H10.8651H10.2986V11.0244V2.86504V2.3329L10.7518 2.27378ZM21.9665 13.0347V22.8496V23.5L21.3435 23.4409L10.7518 21.7853L10.2986 21.6671V21.1941V13.0347V12.4434H10.8651H21.4001H21.9665V13.0347ZM8.88264 21.4306L0.953 20.1889L0.499878 20.1298V19.5977V13.0347V12.4434H1.06628H8.93928H9.50568V13.0347V20.8393V21.5488L8.88264 21.4306Z" fill="#0D0D0D"/>
</svg>
